<?xml version="1.0" encoding="utf-8"?>
<!-- Generator: Adobe Illustrator 22.1.0, SVG Export Plug-In . SVG Version: 6.00 Build 0)  -->
<svg version="1.1" id="Layer_1" xmlns="http://www.w3.org/2000/svg" xmlns:xlink="http://www.w3.org/1999/xlink" x="0px" y="0px"
	 viewBox="0 0 533 310" style="enable-background:new 0 0 533 310;" xml:space="preserve">
<style type="text/css">
	.st0{fill:#FFD7E4;}
	.st1{fill:#FFFFFF;filter:url(#Adobe_OpacityMaskFilter);}
	.st2{mask:url(#mask0_1_);}
	.st3{fill:#9CC0FF;}
	.st4{fill:#276EF1;}
</style>
<path class="st0" d="M533,310c0-43.1-34.9-77.8-78-77.7l-227.9,0c-18.5,0-36.4,7.4-49.5,20.6c-9.9,9.9-23.2,15.5-37.2,15.5H70.5
	c-18.5,0-36.4,7.4-49.5,20.6L0,310h266.5H533z"/>
<defs>
	<filter id="Adobe_OpacityMaskFilter" filterUnits="userSpaceOnUse" x="38.6" y="22.4" width="164.9" height="20.5">
		<feColorMatrix  type="matrix" values="1 0 0 0 0  0 1 0 0 0  0 0 1 0 0  0 0 0 1 0"/>
	</filter>
</defs>
<mask maskUnits="userSpaceOnUse" x="38.6" y="22.4" width="164.9" height="20.5" id="mask0_1_">
	<path class="st1" d="M38.6,22.4h164.9V43H38.6V22.4z"/>
</mask>
<g class="st2">
	<path class="st3" d="M40.3,38.7c3.3,2,9.6,4.3,21.4,4.3h95.9c7.6,0,15-1.2,22.2-3.5l23.7-7.7v-3.3l-32.4-6.1H61.8
		c-5.3,0-10.5,2.2-14.6,4.9c-0.2,0.1-0.5,0.3-0.7,0.4c-0.2,0.1-0.4,0.3-0.7,0.4c-0.2,0.1-0.4,0.3-0.7,0.4c-0.9,0.7-1.7,1.3-2.5,1.9
		c-1,0.9-2,1.7-2.8,2.4C38,34.7,38.3,37.4,40.3,38.7z"/>
</g>
<path class="st3" d="M161.4,22.4l33.2,7.3L205.9,0h-13.6l-16.6,17.9c-2.7,2.9-6.5,4.6-10.5,4.6L161.4,22.4L161.4,22.4z"/>
<path class="st4" d="M124.1,45.3l5.1-0.9v-3l-5.1-0.8V45.3z"/>
<path class="st4" d="M53.9,30.6H42.6c1.6-1.3,3.3-2.6,5.3-3.8h9c0.5,0,0.8,0.6,0.5,1l-1.3,1.7C55.5,30.2,54.7,30.6,53.9,30.6z"/>
<path class="st4" d="M164.1,14.4l-5.5,10.4l-13.1,11.9l6.5,2.7v3.5H68.2l82.5-20.5l7.8-7.9H164.1z"/>
<path class="st4" d="M179.8,39.4c-7.2,2.3-14.6,3.5-22.2,3.5H61.8c-10.2,0-16.4-1.8-20-3.5H179.8z"/>
<path class="st4" d="M107.5,49.1h14.7c1,0,1.9-0.9,1.9-1.9v-8.5c0-1-0.9-1.9-1.9-1.9h-14.7c-1,0-1.9,0.9-1.9,1.9v8.5
	C105.6,48.2,106.5,49.1,107.5,49.1z"/>
<path class="st4" d="M169.5,38.7v1.9l10.5-1.2l10.8-3.5l1.9-4.2h-16.1C172.6,31.6,169.5,34.8,169.5,38.7z"/>
<path class="st3" d="M276.9,310h12.8V183.5h-12.8V310z"/>
<path class="st3" d="M464.1,165.4v1.6c0,1.4-0.6,2.8-1.6,3.8l-12.3,12.4c-5.9,5.9-9.1,13.7-9.1,22V310H380V205
	c0-8.2-3.3-16.1-9.1-22l-12.3-12.3c-1-1-1.6-2.4-1.6-3.8v-1.6H464.1z"/>
<path class="st4" d="M357,165.4h107.2v-8.8H357V165.4z"/>
<path class="st4" d="M379.9,118.5l11.2,11.2H430l11.2-11.2H379.9z"/>
<path class="st3" d="M379.9,118.4h61.3V100h-61.3V118.4z"/>
<path class="st3" d="M426.9,100h5.2V63h-5.2V100z"/>
<path class="st3" d="M464.1,155c0-1.4-0.6-2.8-1.6-3.8l-18.4-18.5c-2-2-4.7-3-7.4-3h-52.4c-2.8,0-5.5,1.1-7.4,3l-18.4,18.4
	c-1,1-1.6,2.4-1.6,3.8v1.6h107.2V155z"/>
<path class="st3" d="M400.8,100h19.5v-9.2c0-1.9-1.6-3.5-3.5-3.5h-12.5c-1.9,0-3.5,1.6-3.5,3.5V100z"/>
<path class="st3" d="M285.5,195.8H281c-5,0-9-4.1-9-9c0-5,4.1-9,9-9h4.4c5,0,9,4.1,9,9C294.5,191.7,290.5,195.8,285.5,195.8z"/>
<path class="st4" d="M441.1,232.3V310H380v-77.7L441.1,232.3z"/>
<path class="st4" d="M276.9,310h12.8v-77.7h-12.8V310z"/>
</svg>
